<svg width="16" height="15" viewBox="0 0 16 15" fill="none" xmlns="http://www.w3.org/2000/svg">
<path d="M15.6496 7.82478C15.6496 7.48326 15.5089 7.15179 15.2779 6.91072L8.73884 0.371652C8.49777 0.130581 8.1663 0 7.82478 0C7.48326 0 7.15179 0.130581 6.92076 0.371652L0.381696 6.91072C0.140625 7.15179 0 7.48326 0 7.82478C0 8.1663 0.140625 8.48772 0.381696 8.7288L1.13504 9.48214C1.36607 9.72322 1.69754 9.86384 2.03906 9.86384C2.38058 9.86384 2.71205 9.72322 2.94308 9.48214L5.89621 6.53906V13.6105C5.89621 14.3337 6.49888 14.7857 7.18192 14.7857H8.46763C9.15067 14.7857 9.75335 14.3337 9.75335 13.6105V6.53906L12.7065 9.48214C12.9375 9.72322 13.269 9.86384 13.6105 9.86384C13.952 9.86384 14.2835 9.72322 14.5246 9.48214L15.2779 8.7288C15.5089 8.48772 15.6496 8.1663 15.6496 7.82478Z" fill="#373F51"/>
</svg>
