<svg width="25" height="24" viewBox="0 0 25 24" fill="none" xmlns="http://www.w3.org/2000/svg">
<rect x="1" y="15.6665" width="23" height="5.07692" stroke="#4687E8" stroke-linecap="round" stroke-linejoin="round"/>
<path d="M3.875 4C3.875 2.34315 5.21815 1 6.875 1H18.125C19.7819 1 21.125 2.34315 21.125 4V7.76923H3.875V4Z" stroke="#4687E8" stroke-linecap="round" stroke-linejoin="round"/>
<path d="M5.59961 6.94873C5.59961 5.84416 6.49504 4.94873 7.59961 4.94873H9.34961C10.4542 4.94873 11.3496 5.84416 11.3496 6.94873V7.76924H5.59961V6.94873Z" stroke="#4687E8" stroke-linecap="round" stroke-linejoin="round"/>
<path d="M13.6504 6.94873C13.6504 5.84416 14.5458 4.94873 15.6504 4.94873H17.4004C18.505 4.94873 19.4004 5.84416 19.4004 6.94873V7.76924H13.6504V6.94873Z" stroke="#4687E8" stroke-linecap="round" stroke-linejoin="round"/>
<path d="M3.875 7.76904H21.125L24 15.6665H1L3.875 7.76904Z" stroke="#4687E8" stroke-linecap="round" stroke-linejoin="round"/>
<path d="M3.30078 23.0001V20.7437" stroke="#4687E8" stroke-linecap="round" stroke-linejoin="round"/>
<path d="M21.6992 23.0001V20.7437" stroke="#4687E8" stroke-linecap="round" stroke-linejoin="round"/>
</svg>
