<svg width="38" height="21" viewBox="0 0 38 21" fill="none" xmlns="http://www.w3.org/2000/svg">
<path d="M26.2005 8.125L22.9005 2.1875C22.7225 1.84584 22.4571 1.55636 22.1307 1.34799C21.8043 1.13961 21.4284 1.01962 21.0405 1H6.58047C5.98047 1 5.38047 1.59375 5.02047 2.1875C4.66047 2.78125 1.48047 8.71875 1.48047 8.71875" stroke="#4687E8" stroke-linecap="round" stroke-linejoin="round"/>
<path d="M11.8 16.4375H26.2M33.4 16.4375H37V9.90625C37 9.43383 36.8104 8.98076 36.4728 8.64672C36.1352 8.31267 35.6774 8.125 35.2 8.125H2.8C2.32261 8.125 1.86477 8.31267 1.52721 8.64672C1.18964 8.98076 1 9.43383 1 9.90625V16.4375H4.6H33.4Z" stroke="#4687E8" stroke-linecap="round" stroke-linejoin="round"/>
<path d="M8.19961 20C10.1878 20 11.7996 18.405 11.7996 16.4375C11.7996 14.47 10.1878 12.875 8.19961 12.875C6.21138 12.875 4.59961 14.47 4.59961 16.4375C4.59961 18.405 6.21138 20 8.19961 20Z" fill="white" stroke="#4687E8" stroke-linecap="round" stroke-linejoin="round"/>
<path d="M29.7992 20C31.7874 20 33.3992 18.405 33.3992 16.4375C33.3992 14.47 31.7874 12.875 29.7992 12.875C27.811 12.875 26.1992 14.47 26.1992 16.4375C26.1992 18.405 27.811 20 29.7992 20Z" fill="white" stroke="#4687E8" stroke-linecap="round" stroke-linejoin="round"/>
</svg>
