<svg width="11" height="11" viewBox="0 0 11 11" fill="none" xmlns="http://www.w3.org/2000/svg">
<path d="M6.41667 2.97917C6.41667 2.85026 6.31641 2.75 6.1875 2.75H5.72917C5.60026 2.75 5.5 2.85026 5.5 2.97917V5.5H3.89583C3.76693 5.5 3.66667 5.60026 3.66667 5.72917V6.1875C3.66667 6.31641 3.76693 6.41667 3.89583 6.41667H6.1875C6.31641 6.41667 6.41667 6.31641 6.41667 6.1875V2.97917ZM9.39583 5.5C9.39583 7.64844 7.64844 9.39583 5.5 9.39583C3.35156 9.39583 1.60417 7.64844 1.60417 5.5C1.60417 3.35156 3.35156 1.60417 5.5 1.60417C7.64844 1.60417 9.39583 3.35156 9.39583 5.5ZM11 5.5C11 2.46354 8.53646 0 5.5 0C2.46354 0 0 2.46354 0 5.5C0 8.53646 2.46354 11 5.5 11C8.53646 11 11 8.53646 11 5.5Z" fill="#BFBFBF"/>
</svg>
