<svg width="21" height="26" viewBox="0 0 21 26" fill="none" xmlns="http://www.w3.org/2000/svg">
<path d="M9 3.3999H1V24.9999H20.2V3.3999H12.2" stroke="#373F51" stroke-miterlimit="10" stroke-linecap="round" stroke-linejoin="round"/>
<path d="M9 1H12.2V5H9V1Z" stroke="#373F51" stroke-miterlimit="10" stroke-linecap="round" stroke-linejoin="round"/>
<path d="M12.2008 22.5999H5.80078M15.4008 19.3999H5.80078H15.4008Z" stroke="#373F51" stroke-miterlimit="10" stroke-linecap="round" stroke-linejoin="round"/>
<path d="M10.5992 12.5998C11.9247 12.5998 12.9992 11.5253 12.9992 10.1998C12.9992 8.87432 11.9247 7.7998 10.5992 7.7998C9.27374 7.7998 8.19922 8.87432 8.19922 10.1998C8.19922 11.5253 9.27374 12.5998 10.5992 12.5998Z" stroke="#373F51" stroke-miterlimit="10" stroke-linecap="round" stroke-linejoin="round"/>
<path d="M14.6016 16.6001C14.6016 15.5392 14.1801 14.5218 13.43 13.7717C12.6798 13.0215 11.6624 12.6001 10.6016 12.6001C9.5407 12.6001 8.52328 13.0215 7.77314 13.7717C7.02299 14.5218 6.60156 15.5392 6.60156 16.6001H14.6016Z" stroke="#373F51" stroke-miterlimit="10" stroke-linecap="round" stroke-linejoin="round"/>
</svg>
