<svg width="21" height="26" viewBox="0 0 21 26" fill="none" xmlns="http://www.w3.org/2000/svg">
<path d="M13 7.4C13 7.4 20.2 13 20.2 21C20.2 22.0609 19.7786 23.0783 19.0284 23.8284C18.2783 24.5786 17.2609 25 16.2 25H5C3.93913 25 2.92172 24.5786 2.17157 23.8284C1.42143 23.0783 1 22.0609 1 21C1 13 8.2 7.4 8.2 7.4C8.2 7.4 3.4 3.24 3.4 1.8C3.4 0.36 6.6 2.6 8.2 2.6C10.48 2.6 10.72 1 12.2 1C13.68 1 13.84 2.64 16.2 2.64C17.12 2.64 15.4 5.04 13 7.4Z" stroke="#373F51" stroke-miterlimit="10" stroke-linecap="round" stroke-linejoin="round"/>
<path d="M8.19922 7.3998H13.3992C15.2697 7.51886 17.1192 6.94979 18.5992 5.7998M17.7992 8.9998C18.2706 8.96271 18.7431 9.05484 19.166 9.26628C19.5889 9.47772 19.9461 9.80047 20.1992 10.1998" stroke="#373F51" stroke-miterlimit="10" stroke-linecap="round" stroke-linejoin="round"/>
<path d="M12.9592 13.8001C12.8649 13.2419 12.5763 12.7351 12.1444 12.3691C11.7126 12.0032 11.1653 11.8016 10.5992 11.8001M10.5992 11.8001C9.27922 11.8001 8.19922 12.6801 8.19922 14.0001C8.19922 15.3201 9.39922 15.9201 10.5992 16.2001C11.7992 16.4801 12.9992 17.0801 12.9992 18.4001C12.9992 19.7201 11.9192 20.6001 10.5992 20.6001M10.5992 11.8001V10.6001M8.19922 18.2001C8.19922 18.8366 8.45207 19.4471 8.90216 19.8972C9.35225 20.3472 9.9627 20.6001 10.5992 20.6001M10.5992 20.6001V21.8001" stroke="#373F51" stroke-miterlimit="10" stroke-linecap="round" stroke-linejoin="round"/>
</svg>
