<svg width="18" height="24" viewBox="0 0 18 24" fill="none" xmlns="http://www.w3.org/2000/svg">
<path d="M2.71484 12.8047H15.2863V12.8047C15.2863 15.7682 12.8839 18.1705 9.92042 18.1705H8.08069C5.11721 18.1705 2.71484 15.7682 2.71484 12.8047V12.8047Z" stroke="#4687E8" stroke-linecap="round" stroke-linejoin="round"/>
<path d="M1 12.805C1 11.3233 2.20119 10.1221 3.68293 10.1221H14.3171C15.7988 10.1221 17 11.3233 17 12.805V12.805H1V12.805Z" stroke="#4687E8" stroke-linecap="round" stroke-linejoin="round"/>
<path d="M2.71484 3.14634C2.71484 1.96095 3.67579 1 4.86119 1H13.1399C14.3253 1 15.2863 1.96095 15.2863 3.14634V3.14634H2.71484V3.14634Z" stroke="#4687E8" stroke-linecap="round" stroke-linejoin="round"/>
<path d="M6.71512 18.1709H11.2866L12.4294 23.0002H5.57227L6.71512 18.1709Z" stroke="#4687E8" stroke-linecap="round" stroke-linejoin="round"/>
<rect x="3.85742" y="3.14648" width="10.2857" height="6.97561" stroke="#4687E8" stroke-linecap="round" stroke-linejoin="round"/>
<path d="M3.78627 5.29248V4.79248H3.28627H3.25143C2.67894 4.79248 2.21484 5.25658 2.21484 5.82907C2.21484 6.40156 2.67894 6.86565 3.25143 6.86565H3.28627H3.78627V6.36565V5.29248Z" stroke="#4687E8"/>
<path d="M1.64258 7.97544C1.64258 8.25159 1.86644 8.47544 2.14258 8.47544C2.41872 8.47544 2.64258 8.25159 2.64258 7.97544H1.64258ZM2.64258 5.8291C2.64258 5.55296 2.41872 5.3291 2.14258 5.3291C1.86644 5.3291 1.64258 5.55296 1.64258 5.8291H2.64258ZM2.64258 7.97544V5.8291H1.64258V7.97544H2.64258Z" fill="#4687E8"/>
</svg>
