<svg width="42" height="40" viewBox="0 0 42 40" fill="none" xmlns="http://www.w3.org/2000/svg">
<path fill-rule="evenodd" clip-rule="evenodd" d="M32.1851 31.9435C29.5144 31.9435 29.5961 29.8524 29.4534 26.6853C29.1067 28.1471 28.495 30.3601 26.9254 30.2383C25.8325 30.1515 25.2999 28.4097 25.4944 26.3635C24.8622 26.3869 24.2885 26.3266 23.8829 26.2184C23.5367 28.4314 20.4687 31.3751 19.9894 31.3751C19.51 31.3751 17.6071 29.9715 16.981 28.2767C16.2507 29.9672 15.1792 31.9889 14.2002 32.1263C12.7951 32.3336 12.1096 31.0378 11.811 29.2763C11.1478 30.7473 10.3216 32.1934 9.36934 32.309C5.61856 32.7353 5.8631 29.7162 5.8631 25.3136C3.73208 26.169 1.7355 25.7218 0.439528 25.2339C-0.381634 28.9789 -0.217886 32.25 2.37099 34.2443C7.71135 38.3586 22.6276 39.1265 30.6771 39.9894C31.7111 40.1003 32.6337 39.3313 32.7008 38.2978C32.8145 36.5521 33.24 33.8182 33.6666 31.4971C33.5698 31.5557 33.4727 31.6136 33.3723 31.6616C33.0003 31.8401 32.6044 31.9435 32.1851 31.9435Z" fill="white"/>
<path fill-rule="evenodd" clip-rule="evenodd" d="M13.6091 19.0315C11.8358 19.8435 11.0609 18.7877 11.9375 17.6915C14.1596 14.8288 15.0156 18.402 13.6091 19.0315ZM41.3502 17.816C36.1034 10.7693 31.0872 5.45726 25.5971 0.532038C24.8119 -0.172291 23.9984 -0.0304098 22.9547 0.135076C22.5641 0.196879 10.4883 4.5179 2.59004 7.49474C1.04495 8.07698 1.48509 10.4647 3.09174 10.848C3.11544 10.8536 3.13927 10.8593 3.1631 10.865C4.21682 11.116 4.82275 12.2162 4.47002 13.2365C3.25408 16.7547 1.65139 20.5508 0.732362 24.0277C1.92766 24.5457 3.71717 25.0206 5.86348 24.5419C5.90425 22.7755 5.96542 14.7885 5.98594 14.6057C6.14357 11.909 7.41316 10.7693 8.5283 10.7693C12.3442 10.7693 11.5753 20.4081 8.63598 24.3033C8.63598 28.9929 8.45235 30.9894 9.24765 31.0906C9.94456 31.1812 10.8444 29.4769 11.6455 27.7373C11.4833 24.8927 11.9567 21.6592 12.0191 21.3054C12.1359 20.6439 13.7723 20.534 13.7723 20.534C12.5731 25.0983 13.1405 30.6237 14.1189 30.8066C14.5968 30.8915 15.6889 29.0556 16.6061 27.0498C16.4011 26.2252 16.2772 25.3809 16.2385 24.6144C16.198 23.9444 16.2313 23.4468 16.3404 22.6386C16.4496 21.8303 18.6135 22.0564 18.6135 22.0564C18.6135 22.0564 18.4841 23.1684 18.4671 24.533C18.4404 26.6998 20.0632 29.503 20.4264 29.503C20.7897 29.503 22.3418 28.4915 23.0067 25.9341C20.3972 24.9191 19.5208 19.1127 21.6 18.2599C23.292 17.5494 24.8008 19.9655 24.0667 25.4266C24.4599 25.5353 25.0284 25.53 25.6299 25.4387C26.2196 22.4346 28.3374 19.2178 32.4707 19.7015L31.9815 21.0415C26.3957 19.9452 26.4567 31.9434 28.2714 28.0454C29.0254 26.5026 29.0661 25.7108 29.4129 24.655C29.4129 23.9444 29.3721 22.5844 29.3721 22.5844C29.3721 22.5844 31.689 22.5723 31.689 23.3424C31.689 24.1125 30.9607 30.9625 32.5297 30.9625C32.8685 30.9625 33.2437 30.8178 33.6297 30.5527C33.7134 30.4952 33.7976 30.4301 33.8821 30.3614C34.1541 28.9691 34.4047 27.8507 34.5481 27.3953C36.2265 22.0648 36.705 20.9356 39.9936 20.6964C41.4175 20.593 42.2004 18.9579 41.3502 17.816Z" fill="white"/>
<path fill-rule="evenodd" clip-rule="evenodd" d="M9.22599 12.8354C8.90882 12.8354 8.62133 13.3288 8.55418 14.1795L8.63561 23.1883C10.9662 18.3406 10.1307 12.8354 9.22599 12.8354Z" fill="white"/>
<path fill-rule="evenodd" clip-rule="evenodd" d="M21.8652 19.0519C20.54 19.3766 21.6 24.4115 23.1496 25.0409C23.4145 23.3355 23.1496 18.7473 21.8652 19.0519Z" fill="white"/>
</svg>
