<svg width="28" height="26" viewBox="0 0 28 26" fill="none" xmlns="http://www.w3.org/2000/svg">
<path d="M1 2.71436H3.57143L7.85715 19.8572H21.5715L23.5858 13.6001M13.2143 9.57151H5.28572H13.2143Z" stroke="#373F51" stroke-miterlimit="10" stroke-linecap="round" stroke-linejoin="round"/>
<path d="M8.71429 24.9999C9.66106 24.9999 10.4286 24.2324 10.4286 23.2856C10.4286 22.3388 9.66106 21.5713 8.71429 21.5713C7.76751 21.5713 7 22.3388 7 23.2856C7 24.2324 7.76751 24.9999 8.71429 24.9999Z" stroke="#373F51" stroke-miterlimit="10" stroke-linecap="round" stroke-linejoin="round"/>
<path d="M19.8588 24.9999C20.8056 24.9999 21.5731 24.2324 21.5731 23.2856C21.5731 22.3388 20.8056 21.5713 19.8588 21.5713C18.912 21.5713 18.1445 22.3388 18.1445 23.2856C18.1445 24.2324 18.912 24.9999 19.8588 24.9999Z" stroke="#373F51" stroke-miterlimit="10" stroke-linecap="round" stroke-linejoin="round"/>
<path d="M19.8572 14.7143C23.6443 14.7143 26.7143 11.6443 26.7143 7.85716C26.7143 4.07005 23.6443 1 19.8572 1C16.0701 1 13 4.07005 13 7.85716C13 11.6443 16.0701 14.7143 19.8572 14.7143Z" stroke="#373F51" stroke-miterlimit="10" stroke-linecap="round" stroke-linejoin="round"/>
<path d="M19.8555 4.42871V8.71443H23.284" stroke="#373F51" stroke-miterlimit="10" stroke-linecap="round" stroke-linejoin="round"/>
</svg>
