<svg width="18" height="26" viewBox="0 0 18 26" fill="none" xmlns="http://www.w3.org/2000/svg">
<path d="M9.13559 1C6.9779 1 4.90858 1.85714 3.38286 3.38286C1.85714 4.90858 1 6.9779 1 9.13559C1 16.4576 9.13559 25 9.13559 25C9.13559 25 17.2712 16.4576 17.2712 9.13559C17.2712 6.9779 16.414 4.90858 14.8883 3.38286C13.3626 1.85714 11.2933 1 9.13559 1V1Z" stroke="#373F51" stroke-miterlimit="10" stroke-linecap="round" stroke-linejoin="round"/>
<path d="M13.2053 8.93191C13.2086 8.45511 13.0595 7.98973 12.7797 7.60365C12.4999 7.21756 12.1041 6.93096 11.65 6.78564C11.1958 6.64032 10.7072 6.64389 10.2552 6.79581C9.80326 6.94774 9.41166 7.24009 9.13753 7.63021C8.8634 7.24009 8.47181 6.94774 8.01985 6.79581C7.5679 6.64389 7.07922 6.64032 6.6251 6.78564C6.17098 6.93096 5.77516 7.21756 5.49537 7.60365C5.21558 7.98973 5.06645 8.45511 5.06974 8.93191C5.0653 9.0132 5.0653 9.09468 5.06974 9.17598C5.3138 11.5353 9.13753 14.0167 9.13753 14.0167C9.13753 14.0167 12.5138 11.7387 13.124 9.58276C13.1829 9.37098 13.2103 9.15168 13.2053 8.93191Z" stroke="#373F51" stroke-miterlimit="10" stroke-linecap="round" stroke-linejoin="round"/>
</svg>
