<svg width="26" height="26" viewBox="0 0 26 26" fill="none" xmlns="http://www.w3.org/2000/svg">
<path d="M13.7206 11.2408C14.1389 11.347 14.5689 11.4008 15.0005 11.4008H17.0004V14.2006L20.0402 11.4008C21.4192 11.369 22.7292 10.7906 23.6818 9.79298C24.6344 8.79534 25.1517 7.46014 25.1199 6.08109C25.0881 4.70204 24.5097 3.39212 23.5121 2.43949C22.5144 1.48686 21.1792 0.969562 19.8002 1.00139H15.0005C14.1445 1.00139 13.3017 1.21272 12.547 1.61664C11.7922 2.02056 11.1489 2.60456 10.6741 3.31681C10.1992 4.02906 9.90759 4.84752 9.82503 5.69954C9.74246 6.55157 9.87152 7.4108 10.2008 8.20097" stroke="#373F51" stroke-linecap="round" stroke-linejoin="round"/>
<path d="M17.4 6.60073C17.6209 6.60073 17.8 6.42166 17.8 6.20076C17.8 5.97986 17.6209 5.80078 17.4 5.80078C17.1791 5.80078 17 5.97986 17 6.20076C17 6.42166 17.1791 6.60073 17.4 6.60073Z" stroke="#373F51" stroke-linecap="round" stroke-linejoin="round"/>
<path d="M14.2008 6.60073C14.4217 6.60073 14.6007 6.42166 14.6007 6.20076C14.6007 5.97986 14.4217 5.80078 14.2008 5.80078C13.9799 5.80078 13.8008 5.97986 13.8008 6.20076C13.8008 6.42166 13.9799 6.60073 14.2008 6.60073Z" stroke="#373F51" stroke-linecap="round" stroke-linejoin="round"/>
<path d="M20.5992 6.60073C20.8201 6.60073 20.9992 6.42166 20.9992 6.20076C20.9992 5.97986 20.8201 5.80078 20.5992 5.80078C20.3783 5.80078 20.1992 5.97986 20.1992 6.20076C20.1992 6.42166 20.3783 6.60073 20.5992 6.60073Z" stroke="#373F51" stroke-linecap="round" stroke-linejoin="round"/>
<path d="M15.1592 21.9204C11.8794 21.3604 12.1993 20.5205 12.1993 19.9605V18.9605C12.7236 18.4291 13.1354 17.7975 13.4103 17.1034C13.6852 16.4094 13.8174 15.6671 13.7993 14.9208V12.2409C13.7993 9.32111 11.6794 8.20117 9.79949 8.20117C7.9196 8.20117 5.79972 9.32111 5.79972 12.2409V14.9208C5.78444 15.6702 5.92196 16.4149 6.2039 17.1094C6.48584 17.804 6.9063 18.4338 7.43962 18.9605V19.9605C7.43962 20.5205 7.71961 21.3604 4.4798 21.9204C1.23999 22.4803 1 24.2002 1 25.0002H18.599C18.599 24.2002 18.079 22.4403 15.1592 21.9204Z" stroke="#373F51" stroke-linecap="round" stroke-linejoin="round"/>
</svg>
